HIERARCHY
ROOT Hips
{
	OFFSET 0 0 0
	CHANNELS 6 Xposition Yposition Zposition Yrotation Xrotation Zrotation
	JOINT Spine
	{
		OFFSET -0 8.73536 -2.7844
		CHANNELS 3 Yrotation Xrotation Zrotation
		JOINT Spine1
		{
			OFFSET -0 11.2677 0
			CHANNELS 3 Yrotation Xrotation Zrotation
			JOINT Spine2
			{
				OFFSET -0 11.2677 0
				CHANNELS 3 Yrotation Xrotation Zrotation
				JOINT Spine3
				{
					OFFSET -0 11.2677 0
					CHANNELS 3 Yrotation Xrotation Zrotation
					JOINT Neck
					{
						OFFSET -0 13.4982 3.7844
						CHANNELS 3 Yrotation Xrotation Zrotation
						JOINT Head
						{
							OFFSET -0 10.9192 0
							CHANNELS 3 Yrotation Xrotation Zrotation
							End Site
							{
								OFFSET 0 15 0
							}
						}
					}
					JOINT LeftShoulder
					{
						OFFSET 1.81987 1.10026 3.63973
						CHANNELS 3 Yrotation Xrotation Zrotation
						JOINT LeftArm
						{
							OFFSET 16.8433 0 0
							CHANNELS 3 Yrotation Xrotation Zrotation
							JOINT LeftForeArm
							{
								OFFSET 29.2679 0 0
								CHANNELS 3 Yrotation Xrotation Zrotation
								JOINT LeftHand
								{
									OFFSET 23.0344 0 0
									CHANNELS 3 Yrotation Xrotation Zrotation
									End Site
									{
										OFFSET 15 0 0
									}
								}
							}
						}
					}
					JOINT RightShoulder
					{
						OFFSET -1.81987 1.10026 3.63973
						CHANNELS 3 Yrotation Xrotation Zrotation
						JOINT RightArm
						{
							OFFSET -16.8433 0 0
							CHANNELS 3 Yrotation Xrotation Zrotation
							JOINT RightForeArm
							{
								OFFSET -29.2679 0 0
								CHANNELS 3 Yrotation Xrotation Zrotation
								JOINT RightHand
								{
									OFFSET -23.0344 0 0
									CHANNELS 3 Yrotation Xrotation Zrotation
									End Site
									{
										OFFSET -15 0 0
									}
								}
							}
						}
					}
				}
			}
		}
	}
	JOINT LeftUpLeg
	{
		OFFSET 10.9192 -3.63973 2
		CHANNELS 3 Yrotation Xrotation Zrotation
		JOINT LeftLeg
		{
			OFFSET -0 -38.6359 2.54781
			CHANNELS 3 Yrotation Xrotation Zrotation
			JOINT LeftFoot
			{
				OFFSET -0 -42.9088 -2.54781
				CHANNELS 3 Yrotation Xrotation Zrotation
				JOINT LeftToeBase
				{
					OFFSET -0 -7.0265 16.3788
					CHANNELS 3 Yrotation Xrotation Zrotation
					End Site
					{
						OFFSET 0 0 5
					}
				}
			}
		}
	}
	JOINT RightUpLeg
	{
		OFFSET -10.9192 -3.63973 2
		CHANNELS 3 Yrotation Xrotation Zrotation
		JOINT RightLeg
		{
			OFFSET -0 -38.6359 2.54781
			CHANNELS 3 Yrotation Xrotation Zrotation
			JOINT RightFoot
			{
				OFFSET -0 -42.9088 -2.54781
				CHANNELS 3 Yrotation Xrotation Zrotation
				JOINT RightToeBase
				{
					OFFSET -0 -7.0265 16.3788
					CHANNELS 3 Yrotation Xrotation Zrotation
					End Site
					{
						OFFSET 0 0 5
					}
				}
			}
		}
	}
}
MOTION
Frames: 12
Frame Time: 0.00833333
0 96.033514 0 0 0 0 0 0 0 0 0 0 0 0 0 0 0 0 0 0 0 0 0 0 0 0 0 0 0 0 0 0 0 0 0 0 0 0 0 0 0 0 0 0 0 0 0 0 0 0 0 0 0 0 0 0 0 0 0 0 0 0 0 0 0 0 0 0 0 0 0 0
-97.789557 96.213531 135.755835 0.546792 1.275576 0.536032 -0.608697 0.882089 0.143611 -0.402547 1.166767 0.137169 0.167483 1.333559 0.125189 0.369727 1.500443 0.069828 -15.819350 8.393326 -6.346873 -6.423809 6.523255 -0.861992 13.562645 4.767767 6.454083 -40.657293 3.598481 -63.062025 -12.531072 -5.640148 10.446073 24.070656 -13.838623 -3.841546 -11.698592 4.611975 -2.349473 47.017034 6.123543 59.659894 13.365219 -3.525539 -3.651167 -13.761867 -12.780662 1.227290 15.202803 -0.392344 6.528386 0.000000 -0.246477 0.000000 7.191244 8.243267 -5.720838 0.000000 -14.514806 0.000000 -14.907443 -1.729541 -5.060983 0.000000 3.685398 0.000000 -7.240093 0.210842 10.124406 0.000000 -6.061085 0.000000
-97.786566 96.212677 135.751367 0.540449 1.273792 0.532769 -0.598200 0.890632 0.164026 -0.391894 1.172436 0.142531 0.179952 1.333345 0.120616 0.380059 1.483663 0.083564 -15.855816 8.386953 -6.397416 -6.432035 6.515660 -0.833043 13.519747 4.770151 6.436201 -40.678389 3.596284 -63.048286 -12.492067 -5.416707 10.368007 24.104754 -14.164162 -3.941349 -11.748963 4.590277 -2.375175 47.046432 6.149598 59.683718 13.402492 -3.554090 -3.630783 -13.748870 -12.663048 1.180018 15.201560 -0.392038 6.533579 0.000000 -0.246513 0.000000 7.184811 8.245976 -5.707355 0.000000 -14.525394 0.000000 -14.927093 -1.736586 -5.059342 0.000000 3.690661 0.000000 -7.217388 0.216849 10.121318 0.000000 -6.049131 0.000000
-97.787695 96.214075 135.751221 0.540637 1.272817 0.532143 -0.604736 0.889017 0.168061 -0.398121 1.179058 0.143142 0.174068 1.339557 0.118819 0.373970 1.485519 0.083046 -15.824114 8.376575 -6.360313 -6.430496 6.474661 -0.889945 13.546584 4.769600 6.431571 -40.657172 3.563405 -63.084267 -12.590341 -5.767411 10.420074 24.064151 -13.888730 -3.785279 -11.744701 4.592741 -2.361583 47.085261 6.142880 59.680227 13.432431 -3.626220 -3.615034 -13.751991 -12.665600 1.068071 15.213643 -0.394214 6.530809 0.000000 -0.247653 0.000000 7.190199 8.253189 -5.693790 0.000000 -14.518559 0.000000 -14.921846 -1.735577 -5.058856 0.000000 3.693288 0.000000 -7.221096 0.214966 10.122383 0.000000 -6.046852 0.000000
-97.783411 96.213696 135.749768 0.529286 1.271774 0.527455 -0.602164 0.895709 0.177952 -0.395331 1.183457 0.152413 0.190714 1.340205 0.125316 0.391652 1.478581 0.082150 -15.841264 8.355360 -6.369304 -6.438748 6.478499 -0.901808 13.535442 4.775413 6.428331 -40.739432 3.563609 -63.074400 -12.525232 -5.510951 10.361455 24.065425 -14.216623 -3.963015 -11.791358 4.565857 -2.371810 47.089235 6.140430 59.704488 13.431270 -3.640636 -3.631655 -13.748138 -12.572991 1.107575 15.198980 -0.388877 6.536949 0.000000 -0.246693 0.000000 7.202139 8.244010 -5.706617 0.000000 -14.495162 0.000000 -14.931360 -1.743768 -5.057904 0.000000 3.699893 0.000000 -7.200981 0.230620 10.129697 0.000000 -6.100104 0.000000
-97.781854 96.215570 135.746655 0.518444 1.270302 0.530254 -0.605176 0.905407 0.184761 -0.398391 1.181665 0.153192 0.191041 1.330932 0.120408 0.392744 1.485120 0.073607 -15.821279 8.367256 -6.361933 -6.430558 6.458449 -0.895482 13.542256 4.793289 6.419356 -40.674544 3.569489 -63.099758 -12.643097 -5.494399 10.455994 24.113634 -14.096134 -4.025533 -11.775504 4.583939 -2.360581 47.108569 6.123422 59.707486 13.445304 -3.734370 -3.618228 -13.752028 -12.592442 1.018226 15.217943 -0.391455 6.530567 0.000000 -0.243002 0.000000 7.198516 8.259255 -5.707362 0.000000 -14.530949 0.000000 -14.934154 -1.745114 -5.057035 0.000000 3.692340 0.000000 -7.194912 0.215165 10.111309 0.000000 -6.039289 0.000000
-97.782745 96.212915 135.744482 0.521525 1.269641 0.526429 -0.614387 0.916658 0.174956 -0.407378 1.171283 0.157644 0.197101 1.352579 0.135333 0.397598 1.447040 0.097781 -15.815519 8.399115 -6.353676 -6.437062 6.403234 -0.943709 13.549450 4.806434 6.420992 -40.674847 3.532522 -63.188996 -12.626470 -5.457259 10.550337 24.098078 -14.088310 -4.049757 -11.769175 4.508002 -2.366133 47.102780 6.239742 59.754144 13.530779 -3.686497 -3.598126 -13.811633 -12.641202 1.043979 15.206056 -0.389080 6.537368 0.000000 -0.249371 0.000000 7.203995 8.265337 -5.722467 0.000000 -14.567171 0.000000 -14.933949 -1.748258 -5.053422 0.000000 3.705317 0.000000 -7.185710 0.214448 10.092547 0.000000 -6.026306 0.000000
-97.781458 96.214624 135.741394 0.519059 1.268164 0.520595 -0.607786 0.926248 0.209098 -0.399857 1.176865 0.163191 0.194027 1.319761 0.115796 0.396956 1.484983 0.064544 -15.817147 8.383666 -6.348442 -6.432373 6.405719 -0.899504 13.565364 4.822340 6.428711 -40.723715 3.517568 -63.140493 -12.642961 -5.502145 10.522403 24.082994 -14.019876 -4.004467 -11.801797 4.587381 -2.363188 47.162270 6.121714 59.740480 13.459506 -3.824561 -3.604484 -13.744187 -12.703876 1.002422 15.225537 -0.389618 6.540764 0.000000 -0.250341 0.000000 7.189425 8.247795 -5.709380 0.000000 -14.527669 0.000000 -14.934771 -1.755026 -5.050185 0.000000 3.715277 0.000000 -7.173003 0.226325 10.105164 0.000000 -6.049752 0.000000
-97.777228 96.214178 135.740540 0.502058 1.267717 0.530143 -0.614223 0.932290 0.193900 -0.405588 1.168071 0.171583 0.199018 1.323910 0.138187 0.406852 1.486151 0.048977 -15.798005 8.394424 -6.341035 -6.428226 6.380008 -0.919444 13.585622 4.843501 6.429804 -40.770250 3.507463 -63.152500 -12.635802 -5.523589 10.523436 24.040703 -13.995375 -3.933979 -11.796915 4.618713 -2.369356 47.170861 6.083280 59.733181 13.449796 -3.843826 -3.621022 -13.776860 -12.688190 0.975240 15.230473 -0.388091 6.530359 0.000000 -0.246563 0.000000 7.198119 8.261380 -5.724391 0.000000 -14.558173 0.000000 -14.923312 -1.754663 -5.061110 0.000000 3.701524 0.000000 -7.179210 0.234399 10.095276 0.000000 -6.052013 0.000000
-97.777899 96.214996 135.742139 0.509738 1.266469 0.527868 -0.612951 0.922237 0.209675 -0.402561 1.177263 0.162210 0.190958 1.338779 0.116220 0.394880 1.466992 0.064388 -15.779435 8.430881 -6.315047 -6.423631 6.340584 -0.919690 13.582767 4.830065 6.441057 -40.748200 3.517421 -63.180777 -12.649277 -5.446486 10.510820 24.057439 -14.033930 -3.943517 -11.779763 4.573187 -2.358915 47.117122 6.070251 59.785918 13.402261 -3.850194 -3.635966 -13.802478 -12.592117 1.071440 15.243880 -0.388904 6.530440 0.000000 -0.243509 0.000000 7.174638 8.239370 -5.712385 0.000000 -14.535004 0.000000 -14.918040 -1.753984 -5.058664 0.000000 3.710641 0.000000 -7.194813 0.236466 10.094532 0.000000 -6.055908 0.000000
-97.773169 96.212585 135.738159 0.499094 1.266509 0.529665 -0.617565 0.937078 0.217923 -0.407350 1.173920 0.169933 0.208434 1.326901 0.120472 0.412572 1.468341 0.069048 -15.791230 8.426461 -6.350682 -6.422126 6.321015 -0.884843 13.555155 4.851301 6.419768 -40.740555 3.522904 -63.200672 -12.689391 -5.421666 10.540710 24.103786 -14.035467 -3.934623 -11.811222 4.573254 -2.388138 47.181066 6.108130 59.813198 13.445922 -3.837072 -3.650985 -13.830358 -12.697841 0.989543 15.229600 -0.384410 6.526913 0.000000 -0.244397 0.000000 7.201558 8.234551 -5.709345 0.000000 -14.546833 0.000000 -14.920912 -1.755663 -5.059778 0.000000 3.702971 0.000000 -7.187195 0.226667 10.124570 0.000000 -6.054881 0.000000
-97.776007 96.214075 135.736609 0.505331 1.267188 0.535814 -0.617554 0.941795 0.223660 -0.406302 1.171590 0.157267 0.197459 1.316202 0.096191 0.401804 1.467366 0.054115 -15.750527 8.491773 -6.245558 -6.423745 6.255312 -0.951063 13.589352 4.866818 6.475009 -40.758129 3.469129 -63.189646 -12.639377 -5.469312 10.498974 24.037328 -13.968563 -3.871098 -11.784835 4.604900 -2.349373 47.124784 6.026927 59.827193 13.364174 -3.901520 -3.658416 -13.778588 -12.611237 1.046588 15.245767 -0.388050 6.521258 0.000000 -0.248777 0.000000 7.173196 8.248668 -5.694448 0.000000 -14.574382 0.000000 -14.882646 -1.749947 -5.066029 0.000000 3.696029 0.000000 -7.227547 0.238323 10.130630 0.000000 -6.076804 0.000000
